# xmcd
#
# Track frame offsets: 
#        150
#        18179
#        22739
#        31487
#        46569
#        63520
#        77989
#
# Disc length: 1199 seconds
#
# Revision: 3
# Processed by: cddbd v1.5.1PL0 Copyright (c) Steve Scherf et al.
# Submitted via: ExactAudioCopy v0.95b2
#
DISCID=4504ad07
DTITLE=Jucifer - The Lambs EP
DYEAR=2001
DGENRE=Rock
TTITLE0=Lamb1
TTITLE1=Lamb2
TTITLE2=Lamb3
TTITLE3=Lamb4
TTITLE4=Platinum High
TTITLE5=White Devils
TTITLE6=Gunsick
EXTD=
EXTT0=
EXTT1=
EXTT2=
EXTT3=
EXTT4=
EXTT5=
EXTT6=
PLAYORDER=
